<?xml version="1.0" standalone="no"?>
<!DOCTYPE svg PUBLIC "-//W3C//DTD SVG 20010904//EN"
 "http://www.w3.org/TR/2001/REC-SVG-20010904/DTD/svg10.dtd">
<svg version="1.0" xmlns="http://www.w3.org/2000/svg"
 width="700.000000pt" height="700.000000pt" viewBox="0 0 700.000000 700.000000"
 preserveAspectRatio="xMidYMid meet">
<metadata>
Created by potrace 1.11, written by Peter Selinger 2001-2013
</metadata>
<g transform="translate(0.000000,700.000000) scale(0.100000,-0.100000)"
fill="#000000" stroke="none">
<path d="M550 5514 c-16 -7 -37 -25 -46 -40 -17 -26 -18 -119 -18 -1908 0
-1780 1 -1882 18 -1908 9 -14 31 -31 48 -37 48 -17 5854 -15 5888 2 14 7 33
28 42 47 17 33 18 144 18 1898 0 2023 3 1906 -52 1942 -20 13 -396 15 -2946
15 -2258 1 -2930 -2 -2952 -11z m5518 -248 c-101 -94 -175 -161 -259 -237 -46
-42 -96 -87 -110 -100 -52 -49 -233 -215 -258 -237 -14 -13 -46 -42 -71 -65
-25 -23 -95 -87 -155 -142 -60 -55 -115 -104 -121 -110 -6 -5 -50 -46 -99 -90
-48 -44 -100 -91 -115 -105 -15 -14 -69 -63 -120 -110 -51 -47 -108 -99 -126
-115 -18 -17 -67 -62 -110 -100 -43 -39 -82 -75 -88 -80 -15 -15 -243 -223
-290 -265 -21 -19 -46 -42 -55 -51 -9 -9 -70 -65 -136 -124 -66 -60 -127 -115
-136 -124 -9 -9 -58 -54 -110 -101 -52 -47 -121 -111 -154 -142 l-60 -57 -40
36 c-22 19 -80 72 -129 117 -49 44 -97 88 -107 97 -10 9 -47 43 -82 75 -35 32
-83 77 -108 99 -24 22 -73 67 -109 100 -36 33 -108 98 -159 145 -52 47 -106
96 -121 110 -15 14 -69 63 -120 110 -51 47 -103 94 -114 105 -12 11 -64 58
-115 105 -52 47 -102 92 -111 100 -38 36 -207 190 -227 208 -13 10 -51 46 -86
78 -35 32 -103 95 -152 139 -48 44 -98 89 -109 100 -12 11 -71 65 -131 120
-61 55 -115 105 -121 110 -6 6 -50 46 -99 90 -48 44 -102 94 -120 110 -17 17
-74 68 -125 115 -52 47 -104 95 -117 106 -13 12 -23 23 -23 25 0 3 1182 5
2626 5 l2625 -1 -53 -49z m222 -1697 c0 -1573 0 -1610 -19 -1597 -10 7 -45 38
-78 68 -33 30 -77 71 -99 90 -54 49 -278 253 -284 260 -3 3 -50 46 -105 95
-55 50 -102 92 -105 95 -3 3 -57 52 -120 110 -63 57 -120 109 -126 115 -6 5
-51 46 -99 90 -49 44 -93 85 -99 91 -6 5 -63 57 -126 114 -63 57 -137 124
-164 149 -71 66 -73 67 -182 166 -54 50 -114 104 -132 120 l-33 31 92 84 c51
47 97 90 103 95 6 6 58 53 116 105 88 80 156 142 214 195 6 6 43 39 81 74 39
36 93 85 120 110 54 50 262 240 281 256 6 6 57 53 114 105 57 52 112 103 124
113 12 10 59 54 106 97 47 43 94 87 106 97 12 10 65 59 119 108 156 144 190
175 193 175 1 0 2 -725 2 -1611z m-5509 1538 c68 -64 257 -239 292 -269 11
-10 63 -57 115 -105 53 -49 106 -97 118 -108 44 -40 121 -110 218 -199 132
-120 138 -127 230 -210 44 -39 84 -76 90 -81 6 -6 67 -62 136 -125 69 -63 147
-134 174 -159 27 -26 57 -53 66 -61 9 -8 58 -53 110 -100 123 -110 120 -107
120 -116 0 -3 -10 -15 -22 -26 -13 -11 -43 -38 -68 -61 -25 -24 -130 -121
-235 -217 -211 -194 -269 -247 -329 -303 -23 -21 -79 -73 -125 -115 -46 -43
-96 -88 -111 -102 -15 -14 -71 -65 -125 -115 -54 -49 -110 -101 -125 -115 -81
-75 -220 -203 -238 -218 -19 -17 -202 -186 -314 -291 -32 -30 -59 -50 -59 -45
-1 5 -2 728 -3 1606 -1 1060 2 1598 9 1598 6 0 40 -29 76 -63z m1884 -1723
c82 -75 225 -205 288 -264 32 -30 67 -62 78 -71 22 -19 178 -161 219 -199 194
-181 221 -198 278 -174 18 7 39 19 46 26 7 7 33 31 57 53 55 50 282 258 289
265 3 3 28 25 55 50 28 25 99 90 159 145 60 55 114 105 121 110 6 6 32 30 57
54 l46 44 28 -22 c15 -11 72 -63 128 -114 55 -50 128 -117 161 -147 33 -30 62
-57 65 -60 3 -3 55 -50 115 -105 61 -54 128 -116 150 -136 22 -21 50 -46 62
-57 13 -10 66 -59 119 -108 53 -49 106 -97 118 -107 12 -10 37 -33 56 -51 145
-133 277 -253 286 -261 6 -5 53 -48 104 -95 51 -47 101 -92 111 -101 10 -9 60
-54 111 -101 51 -47 107 -97 123 -111 l30 -26 -2633 -1 c-2507 0 -2631 1
-2614 17 10 10 43 40 73 67 30 28 83 77 120 110 83 77 275 254 314 291 17 15
72 66 124 114 92 84 190 174 258 238 19 17 69 63 111 101 42 39 100 92 128
119 56 52 226 209 254 233 24 21 211 193 284 262 34 32 63 57 66 57 3 1 28
-20 55 -45z"/>
</g>
</svg>
